<svg enable-background="new 0 0 203 39.5" version="1.1" viewBox="0 0 203 39.5"
	xmlns="http://www.w3.org/2000/svg">
	<style type="text/css">.st0{fill:#96A6B5;}
	.st1{fill:#FFAD00;}
	.st2{fill-rule:evenodd;clip-rule:evenodd;fill:#FFCC00;}
	.st3{fill-rule:evenodd;clip-rule:evenodd;fill:#FFAD00;}
	.st4{fill:#B5C2CF;}</style>
	<path class="st0" d="m28.6 20.4v-15h8.7l-0.3 3.2h-4.6v2.5h3.7v3.1h-3.7v3.1h5.1v3.2h-8.9z"/>
	<path class="st0" d="m47.8 20.4h-8.3v-15h3.9v11.8h5.1l-0.7 3.2z"/>
	<path class="st0" d="m50.1 20.4v-15h8.7l-0.3 3.2h-4.6v2.5h3.7v3.1h-3.7v3.1h5.1v3.2h-8.9z"/>
	<path class="st0" d="m67.9 20.4h-3.5l-5.1-15h4.2l1.9 6.2c0.3 0.9 0.5 1.5 0.7 2.8 0.2-1.2 0.5-2.2 0.8-2.9l2.1-6.1h4.1l-5.2 15z"/>
	<path class="st0" d="m81.2 20.4-0.8-2.9h-3.6l-0.8 2.9h-4l4.8-15h4l4.5 15h-4.1zm-2.2-8.6c-0.2-0.6-0.3-1.5-0.3-2 0 0.6-0.2 1.3-0.4 2.3l-0.6 2.5h1.9l-0.6-2.8z"/>
	<path class="st0" d="M95.1,8.6h-3.5v11.8h-3.9V8.6h-3.5V5.4h11.3L95.1,8.6z"/>
	<path class="st0" d="m102.4 20.7c-4.3 0-6.8-2.9-6.8-7.4 0-5.3 2.9-8.1 6.9-8.1 5.1 0 6.6 3.9 6.6 7.2 0 4.2-1.4 8.3-6.7 8.3zm0-12.5c-1.7 0-2.5 1.8-2.5 4.7 0 3.8 0.9 4.8 2.5 4.8s2.3-1 2.3-4.8c0.1-3.8-0.7-4.7-2.3-4.7z"/>
	<path class="st0" d="m118.4 20.4-1.6-4.2c-0.6-1.5-0.9-1.7-1.8-1.7v5.9h-3.9v-15h5.2c4.4 0 5.8 1.8 5.8 4.3 0 2.6-1.4 3.9-3.1 4.2 0.5 0.2 1.1 0.8 1.5 1.6 0.5 1 1.8 3.8 2.3 4.9h-4.4zm-2.2-11.8h-1.1v3.1h1.1c1.3 0 1.8-0.6 1.8-1.6-0.1-1.2-0.6-1.5-1.8-1.5z"/>
	<path class="st0" d="m124.5 20.4v-15h3.9v15h-3.9z"/>
	<path class="st0" d="m136 20.7c-2.3 0-4-0.6-5.5-1.4l1.4-3c1.1 0.6 2.7 1.2 4.2 1.2s2.1-0.6 2.1-1.4c0-0.7-0.5-1-1.5-1.2l-1.8-0.5c-2.2-0.6-3.7-1.8-3.7-4.3 0-3 2.5-5 5.8-5 2.1 0 4 0.5 5.4 1.5l-1.9 2.7c-1-0.7-2.3-1.1-3.4-1.1-1 0-1.5 0.5-1.5 1.1 0 0.5 0.3 1 1.5 1.3l1.5 0.4c1.6 0.4 3.9 1.1 3.9 4.2 0.1 3.6-2.6 5.5-6.5 5.5z"/>
	<path class="st0" d="M154.3,8.6h-3.5v11.8h-3.9V8.6h-3.5V5.4h11.3L154.3,8.6z"/>
	<path class="st1" d="m156.1 20.8c-1.2 0-2.2-1-2.2-2.2s1-2.2 2.2-2.2 2.2 1 2.2 2.2c0.1 1.2-1 2.2-2.2 2.2z"/>
	<path class="st1" d="m166.7 20.7c-1.9 0-3.5-0.6-4.9-2.1-1.2-1.3-1.7-3.3-1.7-5.4 0-1.9 0.3-3.3 1-4.7 1.3-2.3 3.4-3.4 6.1-3.4 1.5 0 3.1 0.4 3.8 1.1l-1.6 2.8c-0.7-0.5-1.4-0.8-2.2-0.8-0.7 0-1.3 0.2-1.7 0.6-0.7 0.8-1 1.5-1 3.3 0 2.5 0.1 3.7 0.7 4.4 0.5 0.6 1.1 0.9 1.9 0.9 1 0 1.7-0.2 2.6-1l1.7 2.6c-1 1-2.5 1.7-4.7 1.7z"/>
	<path class="st1" d="m178.1 20.7c-4.3 0-6.8-2.9-6.8-7.4 0-5.3 2.9-8.1 6.9-8.1 5.1 0 6.6 3.9 6.6 7.2 0.1 4.2-1.3 8.3-6.7 8.3zm0.1-12.5c-1.7 0-2.5 1.8-2.5 4.7 0 3.8 0.9 4.8 2.5 4.8s2.3-1 2.3-4.8-0.7-4.7-2.3-4.7z"/>
	<path class="st1" d="m199.3 20.4-0.4-6c-0.1-0.9-0.1-1.7-0.1-3-0.2 1.3-0.3 2-0.5 2.8l-1.8 6.2h-3.3l-1.6-6.1c-0.2-0.8-0.4-1.7-0.5-3 0 1.3 0 2.2-0.1 3.1l-0.3 6h-3.9l1.5-15h4.7l1.5 5.9c0.2 0.8 0.4 1.6 0.5 2.8 0.1-1.1 0.3-1.9 0.6-3.1l1.5-5.7h4.6l1.4 15h-3.8z"/>
	<path class="st0" d="m28.6 27.8h3.3v0.8h-2.3v4.9h-1v-5.7z"/>
	<path class="st0" d="m32.1 30.6c0-1 0.3-1.8 0.9-2.3 0.5-0.4 1.1-0.6 1.8-0.6 0.8 0 1.4 0.3 1.9 0.8s0.7 1.2 0.7 2.1c0 0.7-0.1 1.3-0.3 1.7s-0.5 0.7-1 1c-0.4 0.2-0.9 0.3-1.4 0.3-0.8 0-1.4-0.3-1.9-0.8s-0.7-1.3-0.7-2.2zm0.9 0c0 0.7 0.2 1.3 0.5 1.6 0.3 0.4 0.7 0.5 1.2 0.5s0.9-0.2 1.2-0.5c0.3-0.4 0.5-0.9 0.5-1.7 0-0.7-0.2-1.2-0.5-1.6s-0.7-0.5-1.2-0.5-0.9 0.2-1.2 0.5c-0.3 0.4-0.5 1-0.5 1.7z"/>
	<path class="st0" d="m38.7 27.8h4.5v5.7h-1v-4.9h-2.5v2.8c0 0.7 0 1.1-0.1 1.3 0 0.2-0.2 0.4-0.4 0.5-0.2 0.2-0.5 0.2-0.8 0.2h-0.8v-0.8h0.4c0.2 0 0.3 0 0.4-0.1 0.1 0 0.1-0.1 0.2-0.2v-0.9-3.6z"/>
	<path class="st0" d="m44.4 30.6c0-1 0.3-1.8 0.9-2.3 0.5-0.4 1.1-0.6 1.8-0.6 0.8 0 1.4 0.3 1.9 0.8s0.7 1.2 0.7 2.1c0 0.7-0.1 1.3-0.3 1.7s-0.5 0.7-1 1c-0.4 0.2-0.9 0.3-1.4 0.3-0.8 0-1.4-0.3-1.9-0.8-0.4-0.5-0.7-1.3-0.7-2.2zm1 0c0 0.7 0.2 1.3 0.5 1.6 0.3 0.4 0.7 0.5 1.2 0.5s0.9-0.2 1.2-0.5c0.3-0.4 0.5-0.9 0.5-1.7 0-0.7-0.2-1.2-0.5-1.6s-0.7-0.5-1.2-0.5-0.9 0.2-1.2 0.5c-0.3 0.4-0.5 1-0.5 1.7z"/>
	<path class="st0" d="m50.9 27.8h2.2c0.5 0 0.9 0 1.2 0.1s0.5 0.3 0.7 0.5 0.3 0.5 0.3 0.9c0 0.3-0.1 0.5-0.2 0.7s-0.3 0.4-0.5 0.5c0.3 0.1 0.5 0.3 0.7 0.5s0.3 0.5 0.3 0.9c0 0.5-0.2 0.9-0.6 1.2-0.3 0.3-0.9 0.4-1.5 0.4h-2.6v-5.7zm1 2.3h1c0.4 0 0.7 0 0.8-0.1 0.2 0 0.3-0.1 0.4-0.3 0.1-0.1 0.2-0.3 0.2-0.5 0-0.3-0.1-0.5-0.3-0.6s-0.6-0.2-1.1-0.2h-1.1v1.7zm0 2.5h1.3c0.5 0 0.9-0.1 1.1-0.2s0.3-0.3 0.3-0.7c0-0.2-0.1-0.3-0.2-0.5s-0.3-0.3-0.5-0.3-0.5-0.1-0.9-0.1h-1.2v1.8z"/>
	<path class="st0" d="m56.7 27.8h1v2.4h2.7v-2.4h1v5.7h-1v-2.5h-2.7v2.5h-1v-5.7z"/>
	<path class="st0" d="m62.8 27.8h1v4.3l2.7-4.3h1v5.7h-1v-4.3l-2.7 4.3h-1v-5.7z"/>
	<path class="st0" d="m68.9 27.8h1v4.3l2.7-4.3h1v5.7h-1v-4.3l-2.7 4.3h-1v-5.7zm3.3-2.2h0.7c-0.1 0.4-0.2 0.8-0.5 1s-0.6 0.4-1.1 0.4-0.8-0.1-1.1-0.4c-0.3-0.2-0.4-0.6-0.5-1h0.7c0 0.2 0.1 0.4 0.3 0.5 0.1 0.1 0.3 0.2 0.6 0.2s0.5-0.1 0.7-0.2c0.1-0.1 0.2-0.2 0.2-0.5z"/>
	<path class="st0" d="m82 31.6 1 0.1c-0.2 0.6-0.4 1-0.9 1.3-0.4 0.3-1 0.5-1.6 0.5-0.8 0-1.5-0.3-2-0.8s-0.7-1.2-0.7-2.1c0-1 0.2-1.7 0.7-2.2s1.1-0.8 1.9-0.8 1.4 0.3 1.9 0.8 0.7 1.2 0.7 2.2v0.3h-4.2c0 0.6 0.2 1.1 0.5 1.4s0.7 0.5 1.2 0.5c0.4 0 0.7-0.1 0.9-0.3s0.4-0.5 0.6-0.9zm-3.2-1.6h3.2c0-0.5-0.2-0.8-0.4-1.1-0.3-0.4-0.7-0.6-1.2-0.6-0.4 0-0.8 0.1-1.1 0.4-0.3 0.5-0.5 0.8-0.5 1.3z"/>
	<path class="st0" d="m84.3 27.8h4.5v5.7h-1v-4.9h-2.5v2.8c0 0.7 0 1.1-0.1 1.3 0 0.2-0.2 0.4-0.4 0.5-0.2 0.2-0.5 0.2-0.8 0.2h-0.8v-0.8h0.4c0.2 0 0.3 0 0.4-0.1 0.1 0 0.1-0.1 0.2-0.2v-0.9-3.6z"/>
	<path class="st0" d="m94.1 31.6 1 0.1c-0.2 0.6-0.4 1-0.9 1.3-0.4 0.3-1 0.5-1.6 0.5-0.8 0-1.5-0.3-2-0.8s-0.7-1.2-0.7-2.1c0-1 0.2-1.7 0.7-2.2s1.1-0.8 1.9-0.8 1.4 0.3 1.9 0.8 0.7 1.2 0.7 2.2v0.3h-4.2c0 0.6 0.2 1.1 0.5 1.4s0.7 0.5 1.2 0.5c0.4 0 0.7-0.1 0.9-0.3 0.3-0.2 0.5-0.5 0.6-0.9zm-3.1-1.6h3.2c0-0.5-0.2-0.8-0.4-1.1-0.3-0.4-0.7-0.6-1.2-0.6-0.4 0-0.8 0.1-1.1 0.4-0.4 0.5-0.5 0.8-0.5 1.3z"/>
	<path class="st0" d="m96.3 27.8h2.2c0.5 0 0.9 0 1.2 0.1s0.5 0.3 0.7 0.5 0.3 0.5 0.3 0.9c0 0.3-0.1 0.5-0.2 0.7s-0.3 0.4-0.5 0.5c0.3 0.1 0.5 0.3 0.7 0.5s0.3 0.5 0.3 0.9c0 0.5-0.2 0.9-0.6 1.2-0.3 0.3-0.9 0.4-1.5 0.4h-2.6v-5.7zm1 2.3h1c0.4 0 0.7 0 0.8-0.1 0.2 0 0.3-0.1 0.4-0.3 0.1-0.1 0.2-0.3 0.2-0.5 0-0.3-0.1-0.5-0.3-0.6s-0.6-0.2-1.1-0.2h-1.1v1.7zm0 2.5h1.3c0.5 0 0.9-0.1 1.1-0.2s0.3-0.3 0.3-0.7c0-0.2-0.1-0.3-0.2-0.5s-0.3-0.3-0.5-0.3-0.5-0.1-0.9-0.1h-1.2v1.8z"/>
	<path class="st0" d="m105.7 32.7c-0.4 0.3-0.7 0.5-1 0.6s-0.7 0.2-1.1 0.2c-0.6 0-1.1-0.2-1.4-0.5s-0.5-0.7-0.5-1.2c0-0.3 0.1-0.5 0.2-0.8 0.1-0.2 0.3-0.4 0.5-0.6 0.2-0.1 0.4-0.2 0.7-0.3 0.2 0 0.5-0.1 0.9-0.1 0.8-0.1 1.3-0.2 1.7-0.3v-0.3c0-0.4-0.1-0.7-0.3-0.8-0.2-0.2-0.6-0.3-1.1-0.3s-0.8 0.1-1 0.2c-0.2 0.2-0.4 0.4-0.5 0.8l-0.9-0.1c0.1-0.4 0.2-0.7 0.4-1 0.2-0.2 0.5-0.4 0.8-0.6 0.4-0.1 0.8-0.2 1.3-0.2s0.9 0.1 1.2 0.2 0.5 0.3 0.7 0.4c0.1 0.2 0.2 0.4 0.3 0.7v0.9 1.4c0 0.9 0 1.5 0.1 1.7 0 0.2 0.1 0.5 0.2 0.7h-1c-0.1-0.2-0.1-0.4-0.2-0.7zm-0.1-2.1c-0.3 0.1-0.9 0.3-1.6 0.4-0.4 0.1-0.7 0.1-0.8 0.2-0.2 0.1-0.3 0.2-0.4 0.3s-0.1 0.3-0.1 0.5c0 0.3 0.1 0.5 0.3 0.6 0.2 0.2 0.5 0.3 0.8 0.3 0.4 0 0.7-0.1 1-0.2 0.3-0.2 0.5-0.4 0.6-0.7 0.1-0.2 0.2-0.5 0.2-1v-0.4z"/>
	<path class="st0" d="m107.4 27.8h4.6v0.8h-1.8v4.9h-1v-4.9h-1.8v-0.8z"/>
	<path class="st0" d="m112.4 30.6c0-1 0.3-1.8 0.9-2.3 0.5-0.4 1.1-0.6 1.8-0.6 0.8 0 1.4 0.3 1.9 0.8s0.7 1.2 0.7 2.1c0 0.7-0.1 1.3-0.3 1.7s-0.5 0.7-1 1c-0.4 0.2-0.9 0.3-1.4 0.3-0.8 0-1.4-0.3-1.9-0.8-0.4-0.5-0.7-1.3-0.7-2.2zm1 0c0 0.7 0.2 1.3 0.5 1.6 0.3 0.4 0.7 0.5 1.2 0.5s0.9-0.2 1.2-0.5c0.3-0.4 0.5-0.9 0.5-1.7 0-0.7-0.2-1.2-0.5-1.6s-0.7-0.5-1.2-0.5-0.9 0.2-1.2 0.5c-0.3 0.4-0.5 1-0.5 1.7z"/>
	<path class="st0" d="m118.9 35.6v-7.8h0.9v0.7c0.2-0.3 0.4-0.5 0.7-0.6s0.6-0.2 0.9-0.2c0.5 0 0.9 0.1 1.3 0.4 0.4 0.2 0.6 0.6 0.8 1.1s0.3 0.9 0.3 1.5-0.1 1.1-0.3 1.6-0.5 0.8-0.9 1.1c-0.4 0.2-0.8 0.4-1.2 0.4-0.3 0-0.6-0.1-0.9-0.2s-0.5-0.3-0.6-0.5v2.8h-1zm0.9-5c0 0.7 0.1 1.3 0.4 1.6s0.7 0.5 1.1 0.5 0.8-0.2 1.1-0.5c0.3-0.4 0.5-0.9 0.5-1.7 0-0.7-0.1-1.3-0.4-1.6-0.3-0.4-0.7-0.5-1.1-0.5s-0.8 0.2-1.1 0.6c-0.4 0.3-0.5 0.9-0.5 1.6z"/>
	<path class="st0" d="M125,27.8h1v2.4h2.7v-2.4h1v5.7h-1v-2.5H126v2.5h-1V27.8z"/>
	<path class="st0" d="m131.1 27.8h1v4.3l2.7-4.3h1v5.7h-1v-4.3l-2.7 4.3h-1v-5.7z"/>
	<path class="st0" d="m137.2 27.8h1v4.3l2.7-4.3h1v5.7h-1v-4.3l-2.7 4.3h-1v-5.7zm3.3-2.2h0.7c-0.1 0.4-0.2 0.8-0.5 1s-0.6 0.4-1.1 0.4-0.8-0.1-1.1-0.4c-0.3-0.2-0.4-0.6-0.5-1h0.7c0 0.2 0.1 0.4 0.3 0.5 0.1 0.1 0.3 0.2 0.6 0.2s0.5-0.1 0.7-0.2c0.1-0.1 0.2-0.2 0.2-0.5z"/>
	<path class="st0" d="m150.1 31.3 0.9 0.1c-0.1 0.6-0.4 1.2-0.8 1.5-0.4 0.4-0.9 0.6-1.6 0.6-0.8 0-1.4-0.3-1.9-0.8s-0.7-1.2-0.7-2.2c0-0.6 0.1-1.1 0.3-1.6s0.5-0.8 0.9-1 0.9-0.3 1.4-0.3c0.6 0 1.1 0.2 1.5 0.5s0.6 0.8 0.8 1.3l-0.9 0.1c-0.1-0.4-0.2-0.7-0.5-0.9-0.2-0.2-0.5-0.3-0.8-0.3-0.5 0-0.9 0.2-1.2 0.5s-0.5 0.9-0.5 1.6c0 0.8 0.1 1.3 0.4 1.7 0.3 0.3 0.7 0.5 1.1 0.5s0.7-0.1 0.9-0.3c0.4-0.1 0.6-0.5 0.7-1z"/>
	<path class="st0" d="m155.5 32.7c-0.4 0.3-0.7 0.5-1 0.6s-0.7 0.2-1.1 0.2c-0.6 0-1.1-0.2-1.4-0.5s-0.5-0.7-0.5-1.2c0-0.3 0.1-0.5 0.2-0.8 0.1-0.2 0.3-0.4 0.5-0.6 0.2-0.1 0.4-0.2 0.7-0.3 0.2 0 0.5-0.1 0.9-0.1 0.8-0.1 1.3-0.2 1.7-0.3v-0.3c0-0.4-0.1-0.7-0.3-0.8-0.2-0.2-0.6-0.3-1.1-0.3s-0.8 0.1-1 0.2c-0.2 0.2-0.4 0.4-0.5 0.8l-0.9-0.1c0.1-0.4 0.2-0.7 0.4-1 0.2-0.2 0.5-0.4 0.8-0.6 0.4-0.1 0.8-0.2 1.3-0.2s0.9 0.1 1.2 0.2 0.5 0.3 0.7 0.4c0.1 0.2 0.2 0.4 0.3 0.7v0.9 1.4c0 0.9 0 1.5 0.1 1.7 0 0.2 0.1 0.5 0.2 0.7h-1c-0.1-0.2-0.1-0.4-0.2-0.7zm0-2.1c-0.3 0.1-0.9 0.3-1.6 0.4-0.4 0.1-0.7 0.1-0.8 0.2-0.2 0.1-0.3 0.2-0.4 0.3s-0.1 0.3-0.1 0.5c0 0.3 0.1 0.5 0.3 0.6 0.2 0.2 0.5 0.3 0.8 0.3 0.4 0 0.7-0.1 1-0.2 0.3-0.2 0.5-0.4 0.6-0.7 0.1-0.2 0.2-0.5 0.2-1v-0.4z"/>
	<path class="st0" d="m158 27.8h1v4.3l2.7-4.3h1v5.7h-1v-4.3l-2.7 4.3h-1v-5.7zm3.3-2.2h0.7c-0.1 0.4-0.2 0.8-0.5 1s-0.6 0.4-1.1 0.4-0.8-0.1-1.1-0.4c-0.3-0.2-0.4-0.6-0.5-1h0.7c0 0.2 0.1 0.4 0.3 0.5 0.1 0.1 0.3 0.2 0.6 0.2s0.5-0.1 0.7-0.2c0-0.1 0.1-0.2 0.2-0.5z"/>
	<path class="st0" d="m163.6 27.8h4.6v0.8h-1.8v4.9h-1v-4.9h-1.8v-0.8z"/>
	<path class="st0" d="m172.2 27.8h1v2.4c0.3 0 0.5-0.1 0.6-0.2s0.3-0.5 0.5-1c0.2-0.4 0.3-0.7 0.5-0.9 0.1-0.1 0.3-0.2 0.4-0.3 0.2 0 0.4-0.1 0.7-0.1h0.2v0.8h-0.3c-0.3 0-0.4 0-0.5 0.1s-0.2 0.3-0.3 0.7-0.3 0.6-0.4 0.8c-0.1 0.1-0.3 0.3-0.6 0.4 0.4 0.1 0.8 0.5 1.2 1.2l1 1.8h-1.1l-1-1.8c-0.2-0.4-0.4-0.6-0.5-0.7-0.2-0.1-0.3-0.2-0.6-0.2v2.6h-1v-5.6z"/>
	<path class="st0" d="m177 35.6v-7.8h0.9v0.7c0.2-0.3 0.4-0.5 0.7-0.6s0.6-0.2 0.9-0.2c0.5 0 0.9 0.1 1.3 0.4 0.4 0.2 0.6 0.6 0.8 1.1s0.3 0.9 0.3 1.5-0.1 1.1-0.3 1.6-0.5 0.8-0.9 1.1c-0.4 0.2-0.8 0.4-1.2 0.4-0.3 0-0.6-0.1-0.9-0.2s-0.5-0.3-0.6-0.5v2.8h-1zm0.9-5c0 0.7 0.1 1.3 0.4 1.6s0.7 0.5 1.1 0.5 0.8-0.2 1.1-0.5c0.3-0.4 0.5-0.9 0.5-1.7 0-0.7-0.1-1.3-0.4-1.6-0.3-0.4-0.7-0.5-1.1-0.5s-0.8 0.2-1.1 0.6c-0.4 0.3-0.5 0.9-0.5 1.6z"/>
	<path class="st0" d="m186.8 32.7c-0.4 0.3-0.7 0.5-1 0.6s-0.7 0.2-1.1 0.2c-0.6 0-1.1-0.2-1.4-0.5s-0.5-0.7-0.5-1.2c0-0.3 0.1-0.5 0.2-0.8 0.1-0.2 0.3-0.4 0.5-0.6 0.2-0.1 0.4-0.2 0.7-0.3 0.2 0 0.5-0.1 0.9-0.1 0.8-0.1 1.3-0.2 1.7-0.3v-0.3c0-0.4-0.1-0.7-0.3-0.8-0.2-0.2-0.6-0.3-1.1-0.3s-0.8 0.1-1 0.2c-0.2 0.2-0.4 0.4-0.5 0.8l-0.9-0.1c0.1-0.4 0.2-0.7 0.4-1 0.2-0.2 0.5-0.4 0.8-0.6 0.4-0.1 0.8-0.2 1.3-0.2s0.9 0.1 1.2 0.2 0.5 0.3 0.7 0.4c0.1 0.2 0.2 0.4 0.3 0.7v0.9 1.4c0 0.9 0 1.5 0.1 1.7 0 0.2 0.1 0.5 0.2 0.7h-1c-0.1-0.2-0.2-0.4-0.2-0.7zm-0.1-2.1c-0.3 0.1-0.9 0.3-1.6 0.4-0.4 0.1-0.7 0.1-0.8 0.2-0.2 0.1-0.3 0.2-0.4 0.3s-0.1 0.3-0.1 0.5c0 0.3 0.1 0.5 0.3 0.6 0.2 0.2 0.5 0.3 0.8 0.3 0.4 0 0.7-0.1 1-0.2 0.3-0.2 0.5-0.4 0.6-0.7 0.1-0.2 0.2-0.5 0.2-1v-0.4z"/>
	<path class="st0" d="m188.5 26.6v-1.1h1v1.1h-1zm1 6.8v-5.7h1v5.7h-1zm1-6.8v-1.1h1v1.1h-1z"/>
	<path class="st0" d="m192.3 27.8h1v2.4h2.7v-2.4h1v5.7h-1v-2.5h-2.7v2.5h-1v-5.7z"/>
	<path class="st0" d="m198.3 27.8h1v4.3l2.7-4.3h1v5.7h-1v-4.3l-2.7 4.3h-1v-5.7z"/>
	<path class="st2" d="m9.9 24.2-4.9-2.9-5-2.9v-5.7l5 2.9 4.9 2.9v5.7z"/>
	<path class="st2" d="m9.9 16.8-4.9-2.9-5-2.9v-5.7l5 2.9 4.9 2.9v5.7z"/>
	<path class="st3" d="m11.1 24.2 5-2.9 4.9-2.9v-5.7l-10 5.8v5.7z"/>
	<path class="st3" d="m11.1 16.8 5-2.9 4.9-2.9v-5.7l-10 5.8v5.7z"/>
	<path class="st4" d="m9.3 39.5h-1.5c-1-4.6-2.9-9.3-7.8-13.6v-5.7l5 2.8 5 2.9v2.4c-0.7 0.3-1.2 1-1.2 1.9 0 0.8 0.5 1.6 1.2 1.9l-0.7 7.4z"/>
	<path class="st0" d="m11.7 39.5h1.4c1.1-4.6 2.9-9.4 7.8-13.7v-5.7l-4.9 2.9-5 2.9v2.4c0.7 0.3 1.2 1 1.2 1.9 0 0.8-0.5 1.6-1.2 1.9l0.7 7.4z"/>
	<path class="st2" d="M9.9,9.5L3.2,5.7V0l6.7,3.8V9.5z"/>
	<path class="st3" d="M11.1,9.5l6.7-3.8V0l-6.7,3.8V9.5z"/>
</svg>
